<svg xmlns="http://www.w3.org/2000/svg" viewBox="0 0 100 100">
    <defs>
        <pattern id="whatsapp-pattern" x="0" y="0" width="100" height="100"
            patternUnits="userSpaceOnUse">
            <!-- Background -->
            <rect width="100" height="100" fill="#e5ddd5" />

            <!-- Chat bubble shapes -->
            <path
                d="M10,10 Q20,5 30,10 T50,10 Q60,5 70,10 T90,10 V30 Q80,35 70,30 T50,30 Q40,35 30,30 T10,30 Z"
                fill="#d1c4b9" opacity="0.5" />

            <path
                d="M0,50 Q10,45 20,50 T40,50 Q50,45 60,50 T80,50 V70 Q70,75 60,70 T40,70 Q30,75 20,70 T0,70 Z"
                fill="#d1c4b9" opacity="0.5" />

            <path
                d="M20,90 Q30,85 40,90 T60,90 Q70,85 80,90 T100,90 V110 Q90,115 80,110 T60,110 Q50,115 40,110 T20,110 Z"
                fill="#d1c4b9" opacity="0.5" />
        </pattern>
    </defs>

    <rect width="100" height="100" fill="url(#whatsapp-pattern)" />
</svg>